<svg version="1.1" id="Layer_1" xmlns="http://www.w3.org/2000/svg" xmlns:xlink="http://www.w3.org/1999/xlink" x="0px" y="0px"
	 width="100%" viewBox="0 0 280 280" enable-background="new 0 0 280 280" xml:space="preserve">
<path fill="#000001" opacity="1.000000" stroke="none" 
	d="
M281.000000,101.000000 
	C281.000000,161.306625 281.000000,221.113235 281.000000,280.959930 
	C187.735077,280.959930 94.470116,280.959930 1.102583,280.959930 
	C1.102583,187.776825 1.102583,94.553505 1.102583,1.165093 
	C94.333092,1.165093 187.666519,1.165093 281.000000,1.165093 
	C281.000000,34.196381 281.000000,67.348190 281.000000,101.000000 
M241.374786,236.358429 
	C241.374786,236.358429 241.408905,236.324921 242.025894,236.154816 
	C242.327515,235.432114 242.629150,234.709427 243.318420,233.117538 
	C243.266846,225.745331 243.215271,218.373108 243.419037,210.103912 
	C243.333725,206.070175 243.248413,202.036453 243.419983,197.099899 
	C243.334473,192.400452 243.248962,187.701004 243.420670,182.097534 
	C243.334671,177.065704 243.248672,172.033859 243.419830,166.099625 
	C243.334442,161.400528 243.249054,156.701431 243.423508,151.100510 
	C243.336334,146.401718 243.249161,141.702911 243.421906,136.102066 
	C243.334885,131.402023 243.247879,126.701981 243.422836,121.106628 
	C243.336243,117.072289 243.249664,113.037949 243.427338,108.108536 
	C243.338776,104.073563 243.250214,100.038589 243.425491,95.101219 
	C243.337570,90.068451 243.249634,85.035675 243.425888,79.096474 
	C243.228012,74.397003 243.030151,69.697525 242.978500,64.089371 
	C243.008881,61.461285 242.958496,58.829117 243.091202,56.206207 
	C243.238922,53.286777 241.835052,51.974693 238.875443,51.179874 
	C233.854599,46.641861 228.073517,47.025993 222.044815,48.434494 
	C212.423538,50.682339 202.770126,52.792690 193.009033,54.031715 
	C193.005905,46.972721 193.090866,39.912128 192.962402,32.855415 
	C192.898361,29.337357 192.443665,25.826414 192.444077,21.633297 
	C191.968750,17.338211 189.588348,14.341844 185.061691,12.019948 
	C173.693695,10.541368 162.733994,12.377088 151.681671,15.612133 
	C150.440842,16.039011 149.199997,16.465887 147.189499,16.999310 
	C145.097427,17.653475 143.005341,18.307642 140.103531,18.993536 
	C136.500366,19.666100 132.864288,20.201294 129.304459,21.054644 
	C126.451309,21.738590 123.690742,22.808735 120.207710,23.446653 
	C114.801155,24.667093 109.394592,25.887531 103.348907,27.021824 
	C102.861961,27.334129 102.375015,27.646433 101.002808,27.989431 
	C91.051880,30.115246 81.093338,32.206188 71.152512,34.378235 
	C63.601883,36.028030 55.998604,37.512451 48.565254,39.593704 
	C44.427845,40.752132 39.066250,41.839306 38.706390,47.230705 
	C38.180065,55.116146 38.736496,63.073856 38.556938,71.899719 
	C38.649330,76.934029 38.741726,81.968346 38.556198,87.902672 
	C38.649330,93.603493 38.742462,99.304321 38.557018,105.905991 
	C38.637772,112.922585 38.718525,119.939171 38.499340,127.705299 
	C38.595585,131.823364 38.691830,135.941437 38.683502,140.877914 
	C39.103363,146.455261 41.637928,148.455338 51.048485,150.780716 
	C57.202881,152.568359 63.357277,154.355988 69.538460,157.061340 
	C69.581436,169.498978 69.624413,181.936615 69.618614,194.254776 
	C69.618614,194.254776 69.680344,194.310394 69.741737,195.150986 
	C71.121048,197.596603 72.500351,200.042206 74.154793,203.072159 
	C76.233002,204.560623 78.113029,206.684814 80.430069,207.407120 
	C85.480408,208.981506 90.753242,209.842133 96.350464,211.685593 
	C99.155579,212.452652 101.939255,213.312653 104.770645,213.965836 
	C109.474487,215.050980 114.208961,216.003296 119.282814,217.695984 
	C124.536858,219.127625 129.790894,220.559280 135.572708,222.573196 
	C142.439453,224.379959 149.306183,226.186722 156.235718,228.641830 
	C157.205582,229.759979 158.175446,230.878128 159.093918,232.669510 
	C160.407440,234.119812 161.720963,235.570114 163.061737,237.207260 
	C163.061737,237.207260 163.250473,237.211929 163.392960,237.934769 
	C165.769608,240.990707 168.146255,244.046646 170.729645,247.686157 
	C171.013489,247.967850 171.297318,248.249542 171.506454,248.409958 
	C171.506454,248.409958 171.414871,248.519058 171.649017,249.180481 
	C175.101822,253.807465 178.554626,258.434448 182.262405,263.690918 
	C183.633682,265.531281 184.641739,268.291321 186.456772,269.008118 
	C189.606522,270.252045 193.252228,270.425842 196.699127,270.481476 
	C197.100891,270.487976 197.901093,266.917297 197.935806,264.994507 
	C198.110077,255.345169 198.091141,245.692337 198.880417,236.022491 
	C202.568130,236.758270 206.255844,237.494049 210.648773,238.551987 
	C215.430923,239.371552 220.213058,240.191132 225.427139,241.296661 
	C225.598618,241.276382 225.770096,241.256088 226.657349,241.544739 
	C231.801849,242.129166 236.626892,241.653015 240.391876,237.399033 
	C240.391876,237.399033 240.419464,237.329269 240.871918,237.184677 
	C241.159317,236.997055 241.314850,236.732040 241.374786,236.358429 
z"/>
<path fill="#B5A6FF" opacity="1.000000" stroke="none" 
	d="
M185.994629,12.172604 
	C189.588348,14.341844 191.968750,17.338211 192.205292,22.471016 
	C191.690231,27.218838 191.413971,31.128939 190.750275,35.040623 
	C188.515137,35.724091 186.506241,36.136246 184.844498,37.129295 
	C166.808884,47.907257 148.813660,58.753277 130.871826,69.686386 
	C129.941422,70.253342 129.593292,71.775864 128.606964,72.910057 
	C126.157852,73.634239 124.075890,74.301857 121.583420,74.963623 
	C114.436867,76.613747 107.700829,78.269722 100.548531,79.936157 
	C94.152122,81.284035 88.149780,82.530647 82.198051,83.984436 
	C76.263275,85.434082 72.244881,90.454552 72.039017,96.544113 
	C71.909981,100.360970 71.974709,104.184364 71.614975,108.069473 
	C62.305225,113.797905 53.369148,119.520554 44.327328,125.070930 
	C42.708851,126.064453 40.653122,126.345673 38.799278,126.955765 
	C38.718525,119.939171 38.637772,112.922585 39.062149,105.405212 
	C50.731373,98.376144 61.961071,91.957016 73.045197,85.295662 
	C92.968445,73.322174 112.793388,61.185242 132.680191,49.150955 
	C148.453720,39.605778 164.276184,30.141380 180.033920,20.570324 
	C183.161636,18.670599 186.392761,16.660177 185.994629,12.172604 
z"/>
<path fill="#BBACFF" opacity="1.000000" stroke="none" 
	d="
M185.528168,12.096275 
	C186.392761,16.660177 183.161636,18.670599 180.033920,20.570324 
	C164.276184,30.141380 148.453720,39.605778 132.680191,49.150955 
	C112.793388,61.185242 92.968445,73.322174 73.045197,85.295662 
	C61.961071,91.957016 50.731373,98.376144 39.201439,104.954788 
	C38.742462,99.304321 38.649330,93.603493 39.080475,87.439941 
	C41.874367,86.005539 44.294350,85.283798 46.390007,84.022995 
	C64.484108,73.137024 82.498291,62.118317 100.579163,51.210236 
	C117.379791,41.074509 134.233505,31.026781 151.062363,20.937838 
	C153.165070,19.677261 154.726929,18.298130 152.005798,16.092089 
	C162.733994,12.377088 173.693695,10.541368 185.528168,12.096275 
z"/>
<path fill="#2EB9FF" opacity="1.000000" stroke="none" 
	d="
M243.162689,167.002029 
	C243.248672,172.033859 243.334671,177.065704 242.908966,182.603119 
	C220.070068,191.162460 197.737000,199.199890 175.417938,207.276123 
	C161.949005,212.149902 148.501877,217.083954 135.044937,221.990936 
	C129.790894,220.559280 124.536858,219.127625 119.139420,216.979721 
	C120.454033,214.963959 121.706062,213.194855 123.406860,212.448822 
	C129.705566,209.685959 136.152313,207.260574 142.905212,204.775940 
	C147.280869,205.712128 149.162292,203.919724 149.704391,199.984833 
	C150.738647,199.914963 151.445084,199.979309 152.047501,199.759125 
	C173.827255,191.799072 195.578812,183.761551 217.377914,175.855057 
	C225.919510,172.757034 234.564682,169.944550 243.162689,167.002029 
z"/>
<path fill="#C0B0FE" opacity="1.000000" stroke="none" 
	d="
M151.843735,15.852111 
	C154.726929,18.298130 153.165070,19.677261 151.062363,20.937838 
	C134.233505,31.026781 117.379791,41.074509 100.579163,51.210236 
	C82.498291,62.118317 64.484108,73.137024 46.390007,84.022995 
	C44.294350,85.283798 41.874367,86.005539 39.219437,86.989929 
	C38.741726,81.968346 38.649330,76.934029 39.051167,71.399261 
	C50.716835,64.128944 61.792519,57.194424 73.082962,50.629230 
	C88.628540,41.589752 103.105064,30.604296 120.258102,24.454521 
	C120.523590,24.359341 120.681152,23.963184 120.889084,23.707485 
	C123.690742,22.808735 126.451309,21.738590 129.304459,21.054644 
	C132.864288,20.201294 136.500366,19.666100 140.830170,19.117161 
	C143.690933,18.458115 145.825058,17.675442 147.959167,16.892769 
	C149.199997,16.465887 150.440842,16.039011 151.843735,15.852111 
z"/>
<path fill="#37BDFF" opacity="1.000000" stroke="none" 
	d="
M243.291260,166.550827 
	C234.564682,169.944550 225.919510,172.757034 217.377914,175.855057 
	C195.578812,183.761551 173.827255,191.799072 152.047501,199.759125 
	C151.445084,199.979309 150.738647,199.914963 149.630051,199.523361 
	C149.108917,194.044128 149.038452,189.024811 149.005753,183.547699 
	C149.043518,179.694626 149.043518,176.299377 149.043518,172.615616 
	C152.426605,172.871582 155.162033,173.078537 158.204391,173.481262 
	C162.343567,174.427872 166.175812,175.178711 170.386749,176.039764 
	C181.271286,179.091370 185.418091,177.767212 190.427643,169.994934 
	C199.546249,166.995850 208.270538,164.000687 216.993790,161.002441 
	C225.717636,158.004013 234.440414,155.002502 243.163666,152.002335 
	C243.249054,156.701431 243.334442,161.400528 243.291260,166.550827 
z"/>
<path fill="#25B5FF" opacity="1.000000" stroke="none" 
	d="
M135.308823,222.282074 
	C148.501877,217.083954 161.949005,212.149902 175.417938,207.276123 
	C197.737000,199.199890 220.070068,191.162460 242.780334,183.055115 
	C243.248962,187.701004 243.334473,192.400452 242.891663,197.564880 
	C241.241379,198.303177 240.081726,198.472839 239.003006,198.865082 
	C215.976471,207.237564 192.976562,215.683777 169.924606,223.985550 
	C165.441071,225.600220 160.761871,226.671539 156.172928,227.993500 
	C149.306183,226.186722 142.439453,224.379959 135.308823,222.282074 
z"/>
<path fill="#16AFFE" opacity="1.000000" stroke="none" 
	d="
M243.163696,211.000885 
	C243.215271,218.373108 243.266846,225.745331 242.821548,233.648224 
	C242.019424,234.894257 241.714172,235.609589 241.408905,236.324921 
	C241.408905,236.324921 241.374786,236.358429 241.116730,236.427368 
	C240.548447,236.687485 240.402039,236.965149 240.419464,237.329269 
	C240.419464,237.329269 240.391876,237.399033 239.967300,237.343750 
	C235.009003,238.604248 230.475296,239.920029 225.941574,241.235794 
	C225.770096,241.256088 225.598618,241.276382 225.074722,240.820312 
	C220.109390,237.448898 215.198837,236.634521 209.943558,238.229828 
	C206.255844,237.494049 202.568130,236.758270 198.231262,236.305496 
	C197.378891,238.720703 197.175690,240.852921 196.572357,242.992340 
	C190.858536,244.630844 185.597031,246.472900 180.209763,247.807144 
	C177.392197,248.504974 174.353622,248.310532 171.414871,248.519073 
	C171.414871,248.519058 171.506454,248.409958 171.489746,248.154861 
	C171.156342,247.634033 170.839615,247.368301 170.522888,247.102570 
	C168.146255,244.046646 165.769608,240.990707 163.731857,237.625565 
	C165.695969,237.365982 167.494797,237.901382 168.920212,237.391968 
	C188.661896,230.336700 208.341461,223.107910 228.062866,215.995422 
	C233.048431,214.197403 238.127563,212.658752 243.163696,211.000885 
z"/>
<path fill="#C2B2FD" opacity="1.000000" stroke="none" 
	d="
M120.548401,23.577068 
	C120.681152,23.963184 120.523590,24.359341 120.258102,24.454521 
	C103.105064,30.604296 88.628540,41.589752 73.082962,50.629230 
	C61.792519,57.194424 50.716835,64.128944 39.188423,70.949783 
	C38.736496,63.073856 38.180065,55.116146 38.706390,47.230705 
	C39.066250,41.839306 44.427845,40.752132 48.565254,39.593704 
	C55.998604,37.512451 63.601883,36.028030 71.152512,34.378235 
	C81.093338,32.206188 91.051880,30.115246 101.737808,27.951002 
	C102.977882,27.644371 103.482956,27.376171 103.988037,27.107971 
	C109.394592,25.887531 114.801155,24.667093 120.548401,23.577068 
z"/>
<path fill="#1EB2FF" opacity="1.000000" stroke="none" 
	d="
M243.291367,210.552399 
	C238.127563,212.658752 233.048431,214.197403 228.062866,215.995422 
	C208.341461,223.107910 188.661896,230.336700 168.920212,237.391968 
	C167.494797,237.901382 165.695969,237.365982 163.660614,237.264145 
	C163.250473,237.211929 163.061737,237.207260 162.989563,236.768951 
	C161.660019,234.885849 160.402664,233.441055 159.145309,231.996262 
	C158.175446,230.878128 157.205582,229.759979 156.204315,228.317657 
	C160.761871,226.671539 165.441071,225.600220 169.924606,223.985550 
	C192.976562,215.683777 215.976471,207.237564 239.003006,198.865082 
	C240.081726,198.472839 241.241379,198.303177 242.763214,198.016296 
	C243.248413,202.036453 243.333725,206.070175 243.291367,210.552399 
z"/>
<path fill="#3EBFFE" opacity="1.000000" stroke="none" 
	d="
M95.935150,210.994446 
	C90.753242,209.842133 85.480408,208.981506 80.430069,207.407120 
	C78.113029,206.684814 76.233002,204.560623 74.052216,202.378540 
	C75.267632,200.415009 76.365608,198.575058 77.939316,197.967651 
	C88.150124,194.026596 98.506493,190.463440 108.727417,186.547409 
	C113.943970,184.548752 118.978394,182.074692 124.365715,180.011658 
	C126.346153,182.173309 128.056015,184.138809 129.874481,186.433807 
	C131.441147,189.118683 132.899216,191.474060 133.972092,193.911316 
	C122.452721,198.139648 111.273903,202.173447 100.230377,206.548721 
	C98.485420,207.240051 97.351555,209.473831 95.935150,210.994446 
z"/>
<path fill="#5FCEFF" opacity="1.000000" stroke="none" 
	d="
M243.161713,80.002907 
	C243.249634,85.035675 243.337570,90.068451 242.873871,95.551971 
	C233.209305,99.004395 224.099762,102.016335 214.982452,105.004669 
	C206.818497,107.680527 198.646011,110.330406 190.383179,112.561737 
	C190.214493,110.084419 190.139908,108.037117 190.098907,105.540741 
	C190.244980,102.391136 190.357468,99.690598 190.864746,96.991470 
	C193.377014,96.650620 195.600952,96.611450 197.592834,95.911720 
	C204.808624,93.376877 211.905518,90.503036 219.124817,87.978859 
	C227.092636,85.192993 235.145752,82.651085 243.161713,80.002907 
z"/>
<path fill="#48C4FF" opacity="1.000000" stroke="none" 
	d="
M243.160858,122.001938 
	C243.247879,126.701981 243.334885,131.402023 242.892456,136.566315 
	C233.924484,140.012985 225.536591,143.150055 217.033371,145.935043 
	C208.252518,148.810959 199.359528,151.344543 190.418213,153.568207 
	C190.375809,148.402710 190.430771,143.696899 190.861237,138.986481 
	C192.055496,138.858109 192.921341,138.865509 193.686020,138.591019 
	C206.971939,133.821640 220.221405,128.949203 233.539597,124.272308 
	C236.631195,123.186653 239.947800,122.741707 243.160858,122.001938 
z"/>
<path fill="#3FC0FF" opacity="1.000000" stroke="none" 
	d="
M190.515594,154.027908 
	C199.359528,151.344543 208.252518,148.810959 217.033371,145.935043 
	C225.536591,143.150055 233.924484,140.012985 242.762512,137.017334 
	C243.249161,141.702911 243.336334,146.401718 243.293579,151.551422 
	C234.440414,155.002502 225.717636,158.004013 216.993790,161.002441 
	C208.270538,164.000687 199.546249,166.995850 190.438461,169.528320 
	C190.054504,164.052139 190.054474,159.039978 190.169739,154.040634 
	C190.285034,154.053467 190.515594,154.027908 190.515594,154.027908 
z"/>
<path fill="#68D2FF" opacity="1.000000" stroke="none" 
	d="
M243.293793,79.549690 
	C235.145752,82.651085 227.092636,85.192993 219.124817,87.978859 
	C211.905518,90.503036 204.808624,93.376877 197.592834,95.911720 
	C195.600952,96.611450 193.377014,96.650620 190.770767,96.548828 
	C190.209076,93.398918 190.136169,90.693039 190.096069,87.558685 
	C190.243256,85.417229 190.357651,83.704269 190.863586,81.992523 
	C196.755310,80.366837 202.309555,78.901192 207.744598,77.079811 
	C219.472946,73.149422 231.140091,69.036369 242.832275,64.998062 
	C243.030151,69.697525 243.228012,74.397003 243.293793,79.549690 
z"/>
<path fill="#48C2FF" opacity="1.000000" stroke="none" 
	d="
M124.095146,179.815521 
	C118.978394,182.074692 113.943970,184.548752 108.727417,186.547409 
	C98.506493,190.463440 88.150124,194.026596 77.939316,197.967651 
	C76.365608,198.575058 75.267632,200.415009 73.914642,202.086365 
	C72.500351,200.042206 71.121048,197.596603 69.724068,194.748734 
	C69.706398,194.346481 69.667397,194.374252 69.667397,194.374252 
	C69.624413,181.936615 69.581436,169.498978 69.873085,156.500153 
	C70.441780,155.879715 70.675850,155.820450 70.936729,156.251801 
	C70.985352,161.494232 71.007172,166.246063 71.021667,171.463028 
	C71.011620,174.917557 71.084694,177.909424 70.987282,180.895737 
	C70.861046,184.765823 72.394897,185.465439 75.893112,184.103806 
	C84.083549,180.915863 92.450584,178.175003 100.599518,174.889511 
	C105.581543,172.880859 110.291954,170.198532 115.364166,167.960373 
	C116.061264,168.417542 116.518539,168.733063 117.113708,169.356735 
	C119.467384,172.504822 121.683159,175.344788 123.922729,178.458313 
	C123.996071,179.093109 124.045609,179.454315 124.095146,179.815521 
z"/>
<path fill="#57CBFF" opacity="1.000000" stroke="none" 
	d="
M190.477295,112.991753 
	C198.646011,110.330406 206.818497,107.680527 214.982452,105.004669 
	C224.099762,102.016335 233.209305,99.004395 242.741943,96.003174 
	C243.250214,100.038589 243.338776,104.073563 242.882523,108.558167 
	C235.268143,111.318550 228.197281,113.625282 221.129349,115.941002 
	C210.912399,119.288467 200.697601,122.642441 190.387207,125.600647 
	C190.217941,124.134094 190.143372,123.060524 190.103745,121.538345 
	C190.251556,118.390411 190.364426,115.691078 190.477295,112.991753 
z"/>
<path fill="#50C8FF" opacity="1.000000" stroke="none" 
	d="
M190.481888,125.993622 
	C200.697601,122.642441 210.912399,119.288467 221.129349,115.941002 
	C228.197281,113.625282 235.268143,111.318550 242.750397,109.005707 
	C243.249664,113.037949 243.336243,117.072289 243.291840,121.554283 
	C239.947800,122.741707 236.631195,123.186653 233.539597,124.272308 
	C220.221405,128.949203 206.971939,133.821640 193.686020,138.591019 
	C192.921341,138.865509 192.055496,138.858109 190.748337,138.739029 
	C190.198761,138.325836 190.137604,138.155487 190.115967,137.526398 
	C190.264282,133.376297 190.373077,129.684967 190.481888,125.993622 
z"/>
<path fill="#6FD5FF" opacity="1.000000" stroke="none" 
	d="
M242.905396,64.543716 
	C231.140091,69.036369 219.472946,73.149422 207.744598,77.079811 
	C202.309555,78.901192 196.755310,80.366837 190.768768,81.542053 
	C190.209015,77.724205 190.135620,74.358063 190.154999,70.738564 
	C190.324005,70.322128 190.400238,70.159035 190.855774,69.995468 
	C192.381546,69.855232 193.605545,69.928192 194.662659,69.543083 
	C206.510452,65.226898 218.362289,60.918007 230.141495,56.419846 
	C233.236053,55.238117 236.084274,53.411324 239.045624,51.880760 
	C241.835052,51.974693 243.238922,53.286777 243.091202,56.206207 
	C242.958496,58.829117 243.008881,61.461285 242.905396,64.543716 
z"/>
<path fill="#72D8FC" opacity="1.000000" stroke="none" 
	d="
M238.960541,51.530319 
	C236.084274,53.411324 233.236053,55.238117 230.141495,56.419846 
	C218.362289,60.918007 206.510452,65.226898 194.662659,69.543083 
	C193.605545,69.928192 192.381546,69.855232 190.758698,69.543785 
	C190.214294,65.681580 190.146271,62.270599 190.215454,58.632050 
	C190.813858,57.678928 191.275040,56.953373 192.022278,56.081745 
	C192.582321,55.610840 192.856323,55.286011 193.130310,54.961174 
	C202.770126,52.792690 212.423538,50.682339 222.044815,48.434494 
	C228.073517,47.025993 233.854599,46.641861 238.960541,51.530319 
z"/>
<path fill="#37BDFF" opacity="1.000000" stroke="none" 
	d="
M96.142807,211.340027 
	C97.351555,209.473831 98.485420,207.240051 100.230377,206.548721 
	C111.273903,202.173447 122.452721,198.139648 134.197708,193.959900 
	C135.107697,194.016479 135.412399,194.079742 135.839737,194.447906 
	C138.152374,198.089066 140.347900,201.398727 142.543427,204.708389 
	C136.152313,207.260574 129.705566,209.685959 123.406860,212.448822 
	C121.706062,213.194855 120.454033,214.963959 118.963272,216.637512 
	C114.208961,216.003296 109.474487,215.050980 104.770645,213.965836 
	C101.939255,213.312653 99.155579,212.452652 96.142807,211.340027 
z"/>
<path fill="#A595FE" opacity="1.000000" stroke="none" 
	d="
M50.506397,150.207596 
	C41.637928,148.455338 39.103363,146.455261 39.102760,140.403961 
	C41.856388,138.710541 44.252708,137.595398 46.514099,136.252975 
	C55.022316,131.202240 63.486588,126.077477 71.982056,121.432838 
	C72.026154,124.595825 72.055519,127.306412 72.067352,130.459518 
	C72.017601,133.265106 71.985382,135.628174 71.611015,138.054260 
	C64.348045,142.147400 57.427219,146.177490 50.506397,150.207596 
z"/>
<path fill="#A394EE" opacity="1.000000" stroke="none" 
	d="
M71.967316,120.980438 
	C63.486588,126.077477 55.022316,131.202240 46.514099,136.252975 
	C44.252708,137.595398 41.856388,138.710541 39.155045,139.994766 
	C38.691830,135.941437 38.595585,131.823364 38.649307,127.330536 
	C40.653122,126.345673 42.708851,126.064453 44.327328,125.070930 
	C53.369148,119.520554 62.305225,113.797905 71.631660,108.471085 
	C72.018570,109.881195 72.051247,110.954346 72.068024,112.475128 
	C72.023849,115.608658 71.995583,118.294548 71.967316,120.980438 
z"/>
<path fill="#0EABFD" opacity="1.000000" stroke="none" 
	d="
M171.531952,248.849777 
	C174.353622,248.310532 177.392197,248.504974 180.209763,247.807144 
	C185.597031,246.472900 190.858536,244.630844 196.580338,243.461060 
	C196.989944,247.396500 196.838165,250.879379 197.040085,254.341614 
	C197.210129,257.257111 196.292572,259.023407 193.332855,259.778809 
	C189.526382,260.750305 185.779800,261.956390 182.007431,263.061432 
	C178.554626,258.434448 175.101822,253.807465 171.531952,248.849777 
z"/>
<path fill="#9D8EFC" opacity="1.000000" stroke="none" 
	d="
M50.777443,150.494156 
	C57.427219,146.177490 64.348045,142.147400 71.631073,138.505341 
	C72.023819,141.598953 72.054359,144.304535 72.061165,147.445312 
	C72.024994,149.911163 72.012550,151.941788 71.776558,154.134613 
	C71.338646,154.784943 71.124290,155.273056 70.909927,155.761185 
	C70.675850,155.820450 70.441780,155.879715 69.859695,156.041290 
	C63.357277,154.355988 57.202881,152.568359 50.777443,150.494156 
z"/>
<path fill="#05A4FD" opacity="1.000000" stroke="none" 
	d="
M182.134918,263.376160 
	C185.779800,261.956390 189.526382,260.750305 193.332855,259.778809 
	C196.292572,259.023407 197.210129,257.257111 197.040085,254.341614 
	C196.838165,250.879379 196.989944,247.396500 196.980469,243.453857 
	C197.175690,240.852921 197.378891,238.720703 197.861084,236.314621 
	C198.091141,245.692337 198.110077,255.345169 197.935806,264.994507 
	C197.901093,266.917297 197.100891,270.487976 196.699127,270.481476 
	C193.252228,270.425842 189.606522,270.252045 186.456772,269.008118 
	C184.641739,268.291321 183.633682,265.531281 182.134918,263.376160 
z"/>
<path fill="#FEFFFF" opacity="1.000000" stroke="none" 
	d="
M193.069672,54.496445 
	C192.856323,55.286011 192.582321,55.610840 192.041534,55.599232 
	C191.562393,48.521542 191.350052,41.780289 191.137726,35.039040 
	C191.413971,31.128939 191.690231,27.218838 192.066071,22.810493 
	C192.443665,25.826414 192.898361,29.337357 192.962402,32.855415 
	C193.090866,39.912128 193.005905,46.972721 193.069672,54.496445 
z"/>
<path fill="#1395D7" opacity="1.000000" stroke="none" 
	d="
M210.296173,238.390915 
	C215.198837,236.634521 220.109390,237.448898 224.858765,240.677338 
	C220.213058,240.191132 215.430923,239.371552 210.296173,238.390915 
z"/>
<path fill="#1395D7" opacity="1.000000" stroke="none" 
	d="
M226.299469,241.390259 
	C230.475296,239.920029 235.009003,238.604248 239.932816,237.358521 
	C236.626892,241.653015 231.801849,242.129166 226.299469,241.390259 
z"/>
<path fill="#BBACFF" opacity="1.000000" stroke="none" 
	d="
M147.574341,16.946041 
	C145.825058,17.675442 143.690933,18.458115 141.235046,19.101297 
	C143.005341,18.307642 145.097427,17.653475 147.574341,16.946041 
z"/>
<path fill="#16AFFE" opacity="1.000000" stroke="none" 
	d="
M159.119614,232.332886 
	C160.402664,233.441055 161.660019,234.885849 162.975922,236.675522 
	C161.720963,235.570114 160.407440,234.119812 159.119614,232.332886 
z"/>
<path fill="#1395D7" opacity="1.000000" stroke="none" 
	d="
M241.717407,236.239868 
	C241.714172,235.609589 242.019424,234.894257 242.627716,234.082825 
	C242.629150,234.709427 242.327515,235.432114 241.717407,236.239868 
z"/>
<path fill="#C0B0FE" opacity="1.000000" stroke="none" 
	d="
M103.668472,27.064898 
	C103.482956,27.376171 102.977882,27.644371 102.180435,27.935654 
	C102.375015,27.646433 102.861961,27.334129 103.668472,27.064898 
z"/>
<path fill="#1395D7" opacity="1.000000" stroke="none" 
	d="
M240.645691,237.256973 
	C240.402039,236.965149 240.548447,236.687485 241.098602,236.442963 
	C241.314850,236.732040 241.159317,236.997055 240.645691,237.256973 
z"/>
<path fill="#9D8EFC" opacity="1.000000" stroke="none" 
	d="
M69.643005,194.314514 
	C69.667397,194.374252 69.706398,194.346481 69.693375,194.328430 
	C69.680344,194.310394 69.618614,194.254776 69.643005,194.314514 
z"/>
<path fill="#0EABFD" opacity="1.000000" stroke="none" 
	d="
M170.626266,247.394363 
	C170.839615,247.368301 171.156342,247.634033 171.527100,248.215500 
	C171.297318,248.249542 171.013489,247.967850 170.626266,247.394363 
z"/>
<path fill="#6D8EFF" opacity="1.000000" stroke="none" 
	d="
M72.084900,147.010117 
	C72.054359,144.304535 72.023819,141.598953 71.973221,138.442307 
	C71.985382,135.628174 72.017601,133.265106 72.413483,130.435913 
	C77.263611,125.401001 81.890244,120.960304 86.207481,116.236824 
	C95.284050,106.306129 104.258247,96.279831 113.146706,86.180336 
	C116.287247,82.611893 119.055626,78.715912 121.993927,74.969475 
	C124.075890,74.301857 126.157852,73.634239 128.991455,72.889908 
	C133.499725,71.923561 137.256348,71.033920 140.945343,70.470627 
	C139.449814,72.824326 138.197662,75.006691 136.567062,76.855247 
	C118.464470,97.377670 100.361900,117.900932 82.098358,138.279694 
	C79.165230,141.552536 75.442574,144.117767 72.084900,147.010117 
z"/>
<path fill="#AC9DFF" opacity="1.000000" stroke="none" 
	d="
M141.012970,70.144287 
	C137.256348,71.033920 133.499725,71.923561 129.358597,72.833351 
	C129.593292,71.775864 129.941422,70.253342 130.871826,69.686386 
	C148.813660,58.753277 166.808884,47.907257 184.844498,37.129295 
	C186.506241,36.136246 188.515137,35.724091 190.750275,35.040623 
	C191.350052,41.780289 191.562393,48.521542 191.755478,55.745304 
	C191.275040,56.953373 190.813858,57.678928 189.801361,58.668102 
	C185.482468,59.912933 181.714905,60.894146 177.532974,61.888256 
	C171.081940,63.299770 165.045258,64.698387 158.611420,66.094498 
	C152.480484,67.442757 146.746719,68.793526 141.012970,70.144287 
z"/>
<path fill="#7595FF" opacity="1.000000" stroke="none" 
	d="
M121.583420,74.963623 
	C119.055626,78.715912 116.287247,82.611893 113.146706,86.180336 
	C104.258247,96.279831 95.284050,106.306129 86.207481,116.236824 
	C81.890244,120.960304 77.263611,125.401001 72.431007,129.993408 
	C72.055519,127.306412 72.026154,124.595825 71.982056,121.432838 
	C71.995583,118.294548 72.023849,115.608658 72.397614,112.406647 
	C73.562317,111.356247 74.543167,110.967659 75.176041,110.265450 
	C82.562431,102.069824 89.937363,93.862862 97.210205,85.566727 
	C98.686142,83.883118 99.724632,81.816025 100.964783,79.925705 
	C107.700829,78.269722 114.436867,76.613747 121.583420,74.963623 
z"/>
<path fill="#7E9DFF" opacity="1.000000" stroke="none" 
	d="
M100.548538,79.936165 
	C99.724632,81.816025 98.686142,83.883118 97.210205,85.566727 
	C89.937363,93.862862 82.562431,102.069824 75.176041,110.265450 
	C74.543167,110.967659 73.562317,111.356247 72.413528,111.959015 
	C72.051247,110.954346 72.018570,109.881195 71.969193,108.406433 
	C71.974709,104.184364 71.909981,100.360970 72.039017,96.544113 
	C72.244881,90.454552 76.263275,85.434082 82.198051,83.984436 
	C88.149780,82.530647 94.152122,81.284035 100.548538,79.936165 
z"/>
<path fill="#2D5AFF" opacity="1.000000" stroke="none" 
	d="
M142.905212,204.775940 
	C140.347900,201.398727 138.152374,198.089066 136.206696,194.370148 
	C137.744308,192.801758 138.969818,191.562790 140.332764,190.500122 
	C143.172653,188.285843 146.085251,186.164825 148.967987,184.005493 
	C149.038452,189.024811 149.108917,194.044128 149.253723,199.524918 
	C149.162292,203.919724 147.280869,205.712128 142.905212,204.775940 
z"/>
<path fill="#3461FF" opacity="1.000000" stroke="none" 
	d="
M149.005753,183.547699 
	C146.085251,186.164825 143.172653,188.285843 140.332764,190.500122 
	C138.969818,191.562790 137.744308,192.801758 136.089600,194.038651 
	C135.412399,194.079742 135.107697,194.016479 134.582901,193.878021 
	C132.899216,191.474060 131.441147,189.118683 130.193375,186.265015 
	C137.774536,177.506058 145.152100,169.251343 152.514633,160.983276 
	C162.963669,149.249100 173.336929,137.446136 183.914886,125.829475 
	C185.482376,124.108078 187.993988,123.246391 190.068802,121.986954 
	C190.143372,123.060524 190.217941,124.134094 190.387207,125.600647 
	C190.373077,129.684967 190.264282,133.376297 189.757858,137.582092 
	C187.802338,139.010086 185.920685,139.621796 184.740555,140.887573 
	C178.399460,147.688690 172.083115,154.525406 166.068512,161.613159 
	C163.008789,165.218781 160.600327,169.377029 157.897461,173.285477 
	C155.162033,173.078537 152.426605,172.871582 149.043518,172.615616 
	C149.043518,176.299377 149.043518,179.694626 149.005753,183.547699 
z"/>
<path fill="#2D5AFF" opacity="1.000000" stroke="none" 
	d="
M158.204391,173.481262 
	C160.600327,169.377029 163.008789,165.218781 166.068512,161.613159 
	C172.083115,154.525406 178.399460,147.688690 184.740555,140.887573 
	C185.920685,139.621796 187.802338,139.010086 189.718323,138.040833 
	C190.137604,138.155487 190.198761,138.325836 190.372833,138.743622 
	C190.430771,143.696899 190.375809,148.402710 190.418213,153.568207 
	C190.515594,154.027908 190.285034,154.053467 189.797516,154.045227 
	C186.532120,156.199326 183.096985,157.886978 181.118362,160.626556 
	C177.429886,165.733612 170.849365,168.790314 170.008057,175.929535 
	C166.175812,175.178711 162.343567,174.427872 158.204391,173.481262 
z"/>
<path fill="#2555FF" opacity="1.000000" stroke="none" 
	d="
M170.386749,176.039764 
	C170.849365,168.790314 177.429886,165.733612 181.118362,160.626556 
	C183.096985,157.886978 186.532120,156.199326 189.682220,154.032394 
	C190.054474,159.039978 190.054504,164.052139 190.043701,169.530930 
	C185.418091,177.767212 181.271286,179.091370 170.386749,176.039764 
z"/>
<path fill="#3C67FF" opacity="1.000000" stroke="none" 
	d="
M190.103745,121.538345 
	C187.993988,123.246391 185.482376,124.108078 183.914886,125.829475 
	C173.336929,137.446136 162.963669,149.249100 152.514633,160.983276 
	C145.152100,169.251343 137.774536,177.506058 130.084778,185.935516 
	C128.056015,184.138809 126.346153,182.173309 124.365715,180.011658 
	C124.045609,179.454315 123.996071,179.093109 124.000519,178.100372 
	C135.009491,164.839447 145.936264,152.185455 156.929520,139.589478 
	C164.122955,131.347321 171.227875,123.014236 178.744507,115.074097 
	C182.039764,111.593163 186.263306,108.991005 190.065338,105.989822 
	C190.139908,108.037117 190.214493,110.084419 190.383179,112.561737 
	C190.364426,115.691078 190.251556,118.390411 190.103745,121.538345 
z"/>
<path fill="#446DFF" opacity="1.000000" stroke="none" 
	d="
M190.098907,105.540741 
	C186.263306,108.991005 182.039764,111.593163 178.744507,115.074097 
	C171.227875,123.014236 164.122955,131.347321 156.929520,139.589478 
	C145.936264,152.185455 135.009491,164.839447 123.976723,177.826782 
	C121.683159,175.344788 119.467384,172.504822 117.177299,169.008652 
	C118.041862,166.790817 118.764198,165.037048 119.953156,163.697403 
	C131.532059,150.650864 143.233994,137.713470 154.809296,124.663757 
	C163.844589,114.477592 172.637711,104.074211 181.793655,93.999298 
	C184.037949,91.529739 187.279953,89.966888 190.063263,87.987167 
	C190.136169,90.693039 190.209076,93.398918 190.375977,96.547424 
	C190.357468,99.690598 190.244980,102.391136 190.098907,105.540741 
z"/>
<path fill="#4D74FF" opacity="1.000000" stroke="none" 
	d="
M190.096054,87.558685 
	C187.279953,89.966888 184.037949,91.529739 181.793655,93.999298 
	C172.637711,104.074211 163.844589,114.477592 154.809296,124.663757 
	C143.233994,137.713470 131.532059,150.650864 119.953156,163.697403 
	C118.764198,165.037048 118.041862,166.790817 117.039406,168.700516 
	C116.518539,168.733063 116.061264,168.417542 115.226990,167.646606 
	C112.213142,165.838608 109.576279,164.485977 106.968529,162.757263 
	C107.435616,161.333038 107.634438,160.073257 108.346947,159.268036 
	C121.973976,143.867950 135.695572,128.551544 149.324051,113.152740 
	C158.112961,103.222176 166.562057,92.980247 175.604156,83.289062 
	C179.891663,78.693779 185.210571,75.060829 190.062225,70.991913 
	C190.135620,74.358063 190.209015,77.724205 190.377243,81.540833 
	C190.357651,83.704269 190.243256,85.417229 190.096054,87.558685 
z"/>
<path fill="#50C8FF" opacity="1.000000" stroke="none" 
	d="
M106.939423,163.133362 
	C109.576279,164.485977 112.213142,165.838608 114.987167,167.504974 
	C110.291954,170.198532 105.581543,172.880859 100.599518,174.889511 
	C92.450584,178.175003 84.083549,180.915863 75.893112,184.103806 
	C72.394897,185.465439 70.861046,184.765823 70.987282,180.895737 
	C71.084694,177.909424 71.011620,174.917557 71.417969,171.460114 
	C79.429329,168.354095 87.048080,165.746765 94.623978,163.020355 
	C95.232613,162.801315 95.546219,161.762436 96.392914,161.087463 
	C100.172417,161.758041 103.555923,162.445694 106.939423,163.133362 
z"/>
<path fill="#57CBFF" opacity="1.000000" stroke="none" 
	d="
M95.996925,161.104553 
	C95.546219,161.762436 95.232613,162.801315 94.623978,163.020355 
	C87.048080,165.746765 79.429329,168.354095 71.425293,170.994965 
	C71.007172,166.246063 70.985352,161.494232 70.936737,156.251801 
	C71.124290,155.273056 71.338646,154.784943 72.153198,154.216705 
	C75.816734,154.810806 78.880074,155.485031 82.223289,156.375061 
	C86.328384,157.741333 90.153610,158.891785 94.163734,160.271851 
	C94.898064,160.702484 95.447495,160.903519 95.996925,161.104553 
z"/>
<path fill="#557BFF" opacity="1.000000" stroke="none" 
	d="
M96.392914,161.087463 
	C95.447495,160.903519 94.898064,160.702484 94.226273,159.924393 
	C95.968513,156.832291 97.659592,154.163544 99.727661,151.828705 
	C108.858856,141.519577 118.142250,131.345367 127.288307,121.049255 
	C139.514420,107.285767 151.749664,93.528549 163.806046,79.617035 
	C168.754807,73.906792 173.247299,67.801147 177.947342,61.875362 
	C181.714905,60.894146 185.482468,59.912933 189.664139,58.895668 
	C190.146271,62.270599 190.214294,65.681580 190.379395,69.544250 
	C190.400238,70.159035 190.324005,70.322128 190.154999,70.738564 
	C185.210571,75.060829 179.891663,78.693779 175.604156,83.289062 
	C166.562057,92.980247 158.112961,103.222176 149.324051,113.152740 
	C135.695572,128.551544 121.973976,143.867950 108.346947,159.268036 
	C107.634438,160.073257 107.435616,161.333038 106.968529,162.757263 
	C103.555923,162.445694 100.172417,161.758041 96.392914,161.087463 
z"/>
<path fill="#6588FF" opacity="1.000000" stroke="none" 
	d="
M81.943413,156.159256 
	C78.880074,155.485031 75.816734,154.810806 72.376755,154.054504 
	C72.012550,151.941788 72.024994,149.911163 72.061165,147.445312 
	C75.442574,144.117767 79.165230,141.552536 82.098358,138.279694 
	C100.361900,117.900932 118.464470,97.377670 136.567062,76.855247 
	C138.197662,75.006691 139.449814,72.824326 140.945343,70.470627 
	C146.746719,68.793526 152.480484,67.442757 158.551056,66.433647 
	C158.074066,68.203598 157.457794,69.799599 156.412216,71.031120 
	C151.911987,76.331558 147.337616,81.571510 142.696152,86.749146 
	C124.893562,106.608276 107.017418,126.401665 89.268951,146.308960 
	C86.556602,149.351227 84.372063,152.864059 81.943413,156.159256 
z"/>
<path fill="#5D82FF" opacity="1.000000" stroke="none" 
	d="
M82.223289,156.375061 
	C84.372063,152.864059 86.556602,149.351227 89.268951,146.308960 
	C107.017418,126.401665 124.893562,106.608276 142.696152,86.749146 
	C147.337616,81.571510 151.911987,76.331558 156.412216,71.031120 
	C157.457794,69.799599 158.074066,68.203598 158.948242,66.436157 
	C165.045258,64.698387 171.081940,63.299770 177.532974,61.888260 
	C173.247299,67.801147 168.754807,73.906792 163.806046,79.617035 
	C151.749664,93.528549 139.514420,107.285767 127.288307,121.049255 
	C118.142250,131.345367 108.858856,141.519577 99.727661,151.828705 
	C97.659592,154.163544 95.968513,156.832291 94.041367,159.694794 
	C90.153610,158.891785 86.328384,157.741333 82.223289,156.375061 
z"/>
</svg>