<svg width="168" height="52" viewBox="0 0 168 52" fill="none" xmlns="http://www.w3.org/2000/svg">
<g clip-path="url(#clip0_1655_10328)">
<path d="M6.62403 28.5261V36.2888C6.62277 36.8819 6.82167 37.4579 7.18853 37.9239C7.5554 38.3898 8.06876 38.7183 8.64553 38.8561L23.8001 42.979L30.2659 51.6507C30.3732 51.7947 30.5231 51.9012 30.6944 51.955C30.8657 52.0089 31.0496 52.0073 31.2199 51.9507C31.3903 51.8941 31.5385 51.7851 31.6434 51.6395C31.7483 51.4938 31.8046 51.3187 31.8044 51.1392V44.5004L37.9526 45.668C38.3387 45.7578 38.7401 45.7594 39.1269 45.6726C39.5136 45.5858 39.8759 45.4128 40.1866 45.1666C40.4973 44.9205 40.7485 44.6074 40.9214 44.2507C41.0943 43.8939 41.1846 43.5028 41.1854 43.1064V10.1633C41.1846 9.76691 41.0943 9.37579 40.9214 9.01909C40.7485 8.66238 40.4973 8.34928 40.1866 8.10309C39.8759 7.85691 39.5136 7.68397 39.1269 7.59717C38.7401 7.51037 38.3387 7.51193 37.9526 7.60174L30.5359 9.32277V30.9565C30.5372 31.3092 30.4582 31.6576 30.305 31.9753C30.1518 32.293 29.9283 32.5717 29.6514 32.7902C29.3746 33.0088 29.0517 33.1616 28.7071 33.2369C28.3625 33.3123 28.0053 33.3083 27.6625 33.2252L22.2084 32.1945V38.0897C22.2053 38.2473 22.1534 38.4 22.0597 38.5268C21.9661 38.6535 21.8354 38.7481 21.6857 38.7974C21.536 38.8466 21.3747 38.8482 21.2241 38.8018C21.0735 38.7555 20.941 38.6635 20.8449 38.5385L15.1208 30.8576L6.62403 28.5261Z" fill="url(#paint0_linear_1655_10328)"/>
<path d="M6.62402 16.9746V28.5255L15.1227 30.8475L20.8468 38.5284C20.9429 38.6533 21.0754 38.7453 21.226 38.7917C21.3766 38.8381 21.5379 38.8365 21.6876 38.7872C21.8373 38.738 21.968 38.6434 22.0616 38.5167C22.1553 38.3899 22.2072 38.2372 22.2103 38.0796V32.1844L27.6625 33.2246C28.0048 33.3063 28.3611 33.3093 28.7047 33.2333C29.0484 33.1573 29.3702 33.0044 29.6462 32.7859C29.9221 32.5675 30.1448 32.2893 30.2976 31.9723C30.4504 31.6553 30.5293 31.3078 30.5283 30.9559V9.31836L8.64553 14.413C8.06971 14.5506 7.55706 14.8783 7.1903 15.343C6.82353 15.8078 6.62404 16.3826 6.62402 16.9746Z" fill="url(#paint1_linear_1655_10328)"/>
<path d="M-0.102533 8.36722V24.912C-0.103683 25.4391 0.0731324 25.9513 0.399284 26.3654C0.725435 26.7796 1.18183 27.0715 1.69457 27.194L6.62376 28.5252V16.9743C6.62378 16.3823 6.82327 15.8075 7.19004 15.3427C7.5568 14.878 8.06945 14.5504 8.64527 14.4127L30.53 9.31807V2.33124C30.5299 1.97949 30.4503 1.6323 30.2971 1.31569C30.1438 0.999074 29.9209 0.721242 29.645 0.503001C29.3692 0.284761 29.0475 0.131769 28.7041 0.0554857C28.3607 -0.0207974 28.0045 -0.0183945 27.6622 0.0625145L1.69457 6.1042C1.18386 6.22376 0.7285 6.51231 0.402312 6.92306C0.0761234 7.33382 -0.101771 7.84271 -0.102533 8.36722Z" fill="url(#paint2_linear_1655_10328)"/>
<path d="M71.7953 37.6984L70.4641 33.7924H60.1493L58.8181 37.6984C58.7129 38.0105 58.5128 38.282 58.2459 38.4749C57.979 38.6679 57.6585 38.7727 57.3291 38.7748H54.6667C54.5106 38.7766 54.3564 38.7409 54.217 38.6706C54.0776 38.6003 53.9571 38.4976 53.8658 38.371C53.7744 38.2444 53.7148 38.0977 53.6921 37.9432C53.6693 37.7888 53.684 37.6311 53.7349 37.4836L61.9407 14.7297C62.0557 14.4236 62.2617 14.1599 62.5309 13.9743C62.8002 13.7887 63.1198 13.69 63.4469 13.6914H67.1723C67.4982 13.695 67.8156 13.7957 68.0839 13.9806C68.3522 14.1656 68.5592 14.4264 68.6784 14.7297L76.8557 37.4836C76.907 37.6282 76.9232 37.7831 76.9028 37.9352C76.8825 38.0874 76.8262 38.2325 76.7387 38.3587C76.6512 38.4848 76.535 38.5883 76.3996 38.6607C76.2642 38.7331 76.1135 38.7722 75.96 38.7748H73.3034C72.9708 38.7767 72.646 38.6737 72.3753 38.4804C72.1046 38.2872 71.9017 38.0136 71.7953 37.6984ZM68.9998 29.4565L65.3162 18.5997L61.627 29.4565H68.9998Z" fill="#212280"/>
<path d="M85.8042 20.6058H88.4209C88.5905 20.6053 88.7586 20.6384 88.9154 20.7031C89.0721 20.7678 89.2146 20.863 89.3344 20.983C89.4543 21.103 89.5492 21.2456 89.6137 21.4025C89.6782 21.5593 89.711 21.7274 89.7103 21.8971V23.4736C89.711 23.6431 89.6782 23.8111 89.6137 23.9679C89.5491 24.1246 89.4542 24.2671 89.3343 24.387C89.2144 24.5068 89.072 24.6018 88.9152 24.6663C88.7584 24.7308 88.5904 24.7637 88.4209 24.7629H85.8042V37.4834C85.8049 37.6523 85.7724 37.8198 85.7083 37.9762C85.6443 38.1326 85.5501 38.2748 85.431 38.3947C85.312 38.5147 85.1704 38.6099 85.0145 38.6751C84.8586 38.7403 84.6914 38.7741 84.5224 38.7746H82.5447C82.3749 38.7754 82.2066 38.7425 82.0496 38.6779C81.8926 38.6132 81.75 38.5182 81.6299 38.3981C81.5099 38.278 81.4148 38.1354 81.3502 37.9784C81.2855 37.8214 81.2527 37.6531 81.2534 37.4834V24.7629H79.9584C79.6216 24.7569 79.3009 24.618 79.0661 24.3765C78.8313 24.1349 78.7016 23.8104 78.7052 23.4736V21.8971C78.7016 21.5601 78.8313 21.2353 79.066 20.9935C79.3007 20.7516 79.6214 20.6123 79.9584 20.6058H81.2477C81.2477 16.8804 82.8965 13.2253 87.8067 13.2253C88.1411 13.2169 88.4758 13.2284 88.8089 13.2595C89.0481 13.2734 89.2733 13.3771 89.4394 13.5499C89.6055 13.7227 89.7002 13.9518 89.7046 14.1914V16.1634C89.6958 16.4108 89.5961 16.6462 89.4245 16.8244C89.2529 17.0027 89.0214 17.1114 88.7746 17.1295C86.5572 17.1656 85.8042 18.4569 85.8042 20.6058Z" fill="#212280"/>
<path d="M109.522 38.7748H106.403C106.158 38.7732 105.917 38.7138 105.699 38.6015C105.482 38.4891 105.293 38.327 105.15 38.1282L99.1654 30.1411V37.4873C99.169 37.8247 99.0391 38.1497 98.8039 38.3916C98.5688 38.6335 98.2476 38.7726 97.9103 38.7786H95.9002C95.7325 38.7784 95.5665 38.7446 95.412 38.6792C95.2576 38.6137 95.1178 38.518 95.0009 38.3976C94.8841 38.2772 94.7926 38.1347 94.7318 37.9783C94.671 37.822 94.6422 37.655 94.647 37.4873V14.9808C94.6424 14.8132 94.6715 14.6465 94.7324 14.4904C94.7933 14.3342 94.8848 14.1919 95.0016 14.0717C95.1184 13.9516 95.2581 13.856 95.4125 13.7907C95.5668 13.7253 95.7326 13.6916 95.9002 13.6914H97.9065C98.2436 13.6969 98.5648 13.8356 98.8 14.0772C99.0352 14.3188 99.1652 14.6436 99.1616 14.9808V28.3097L104.321 21.2507C104.475 21.0545 104.671 20.8949 104.894 20.7834C105.117 20.672 105.363 20.6113 105.612 20.606H108.406C108.556 20.6041 108.705 20.6446 108.833 20.723C108.962 20.8014 109.066 20.9144 109.133 21.0491C109.201 21.1838 109.229 21.3348 109.215 21.4848C109.2 21.6348 109.144 21.7777 109.052 21.8972L103.57 28.9563L110.163 37.4835C110.254 37.6026 110.311 37.745 110.325 37.8945C110.34 38.044 110.312 38.1945 110.245 38.3291C110.179 38.4636 110.075 38.5767 109.947 38.6555C109.82 38.7343 109.672 38.7756 109.522 38.7748Z" fill="#212280"/>
<path d="M128.371 20.1761H130.341C130.51 20.1753 130.679 20.2082 130.836 20.2728C130.993 20.3375 131.135 20.4325 131.255 20.5526C131.375 20.6727 131.471 20.8153 131.535 20.9723C131.6 21.1293 131.633 21.2976 131.632 21.4673V37.0612C131.632 37.2309 131.599 37.3989 131.535 37.5557C131.47 37.7125 131.375 37.8549 131.255 37.9748C131.135 38.0946 130.992 38.1895 130.835 38.254C130.678 38.3185 130.51 38.3514 130.341 38.3506H128.371C128.201 38.3514 128.033 38.3185 127.876 38.254C127.719 38.1895 127.576 38.0946 127.456 37.9748C127.336 37.8549 127.241 37.7125 127.177 37.5557C127.112 37.3989 127.079 37.2309 127.079 37.0612V36.2017C125.938 37.7059 124.105 38.7823 121.275 38.7823C115.65 38.7823 112.425 34.0147 112.425 29.2852C112.425 24.5196 115.658 19.7539 121.275 19.7539C124.105 19.7539 125.933 20.8284 127.079 22.3345V21.4749C127.078 21.3045 127.11 21.1355 127.174 20.9776C127.238 20.8197 127.333 20.6761 127.453 20.5553C127.573 20.4344 127.716 20.3386 127.874 20.2735C128.031 20.2084 128.2 20.1753 128.371 20.1761ZM126.899 29.2852C126.899 26.4555 125.107 24.1259 121.99 24.1259C118.873 24.1259 117.082 26.4821 117.082 29.2852C117.082 32.0446 118.873 34.4445 121.992 34.4445C125.111 34.4445 126.899 32.0731 126.899 29.2852Z" fill="#212280"/>
<path d="M145.104 20.2486C145.24 20.2304 145.379 20.242 145.51 20.2827C145.642 20.3233 145.763 20.392 145.865 20.4841C145.968 20.5761 146.049 20.6893 146.103 20.8157C146.157 20.9422 146.184 21.079 146.18 21.2166V24.0824C146.18 24.2097 146.156 24.3358 146.107 24.4534C146.059 24.5711 145.988 24.678 145.898 24.768C145.808 24.858 145.701 24.9293 145.583 24.9777C145.465 25.0262 145.339 25.0509 145.212 25.0504C140.733 24.9059 140.123 28.1311 140.123 31.2841V37.4837C140.127 37.8191 139.998 38.1424 139.766 38.384C139.533 38.6256 139.215 38.766 138.879 38.7749H136.864C136.694 38.7757 136.525 38.7428 136.368 38.6782C136.211 38.6136 136.069 38.5185 135.949 38.3984C135.829 38.2784 135.734 38.1357 135.669 37.9787C135.604 37.8217 135.572 37.6535 135.572 37.4837V21.8898C135.572 21.72 135.604 21.5517 135.669 21.3947C135.734 21.2377 135.829 21.0951 135.949 20.975C136.069 20.855 136.211 20.7599 136.368 20.6953C136.525 20.6306 136.694 20.5978 136.864 20.5985H138.879C139.216 20.605 139.537 20.7443 139.772 20.9862C140.006 21.228 140.136 21.5528 140.133 21.8898V23.5366C140.684 22.6702 141.411 21.9295 142.268 21.363C143.124 20.7965 144.091 20.4168 145.104 20.2486Z" fill="#212280"/>
</g>
<defs>
<linearGradient id="paint0_linear_1655_10328" x1="34.4173" y1="52.0539" x2="19.47" y2="11.0628" gradientUnits="userSpaceOnUse">
<stop stop-color="#00A6FF"/>
<stop offset="1" stop-color="#80DDFF"/>
</linearGradient>
<linearGradient id="paint1_linear_1655_10328" x1="34.6246" y1="33.2512" x2="9.31491" y2="10.661" gradientUnits="userSpaceOnUse">
<stop stop-color="#1244FF"/>
<stop offset="1" stop-color="#8AA7FF"/>
</linearGradient>
<linearGradient id="paint2_linear_1655_10328" x1="26.3025" y1="31.9559" x2="9.31655" y2="3.87353" gradientUnits="userSpaceOnUse">
<stop stop-color="#6A55FF"/>
<stop offset="0.01" stop-color="#6C57FF"/>
<stop offset="0.32" stop-color="#917FFF"/>
<stop offset="0.59" stop-color="#AD9CFF"/>
<stop offset="0.83" stop-color="#BDAEFF"/>
<stop offset="1" stop-color="#C3B4FF"/>
</linearGradient>
<clipPath id="clip0_1655_10328">
<rect width="168" height="52" fill="white"/>
</clipPath>
</defs>
</svg>
